<svg version="1.1" id="Layer_1" xmlns="http://www.w3.org/2000/svg" xmlns:xlink="http://www.w3.org/1999/xlink" x="0px" y="0px"
	 width="100%" viewBox="0 0 340 340" enable-background="new 0 0 340 340" xml:space="preserve">
<path fill="#00C73C" opacity="1.000000" stroke="none" 
	d="
M231.000000,341.000000 
	C155.333344,341.000000 80.166641,340.970184 5.000202,341.096222 
	C1.575809,341.101959 0.901076,340.424011 0.904656,336.999939 
	C1.020349,226.333405 1.020342,115.666725 0.904675,5.000201 
	C0.901097,1.576429 1.575795,0.901068 4.999997,0.904648 
	C115.666527,1.020351 226.333206,1.020340 336.999756,0.904684 
	C340.423401,0.901106 341.098969,1.575622 341.095398,4.999936 
	C340.979675,115.666466 340.979675,226.333145 341.095306,336.999695 
	C341.098877,340.423218 340.426819,341.114838 336.999756,341.099091 
	C301.833740,340.937469 266.666748,341.000000 231.000000,341.000000 
z"/>
<path fill="#FEFFFF" opacity="1.000000" stroke="none" 
	d="
M50.126919,287.000977 
	C46.088081,287.611725 44.890633,286.478241 44.897953,282.554352 
	C45.035385,208.906616 45.026203,135.258530 44.917191,61.610729 
	C44.911846,58.001259 45.605328,56.866879 49.476101,56.896496 
	C75.301369,57.094067 101.129166,57.055828 126.955269,56.923855 
	C130.024536,56.908169 131.676605,58.006912 133.344742,60.453140 
	C158.572281,97.447868 183.903503,134.371887 209.401627,171.591568 
	C210.919418,169.903595 210.313507,168.033539 210.315475,166.392212 
	C210.356995,131.734390 210.424026,97.076111 210.247772,62.419128 
	C210.226151,58.163189 211.054596,56.826263 215.630264,56.873589 
	C240.954453,57.135502 266.283142,57.062874 291.609253,56.922302 
	C294.964691,56.903679 296.093903,57.548126 296.088165,61.195866 
	C295.971680,135.010284 295.960144,208.824997 296.110260,282.639313 
	C296.118561,286.727905 294.668793,287.085999 291.274231,287.069427 
	C265.614685,286.944092 239.953812,286.928162 214.294678,287.090698 
	C210.993271,287.111603 209.293411,285.920349 207.524704,283.325134 
	C183.244461,247.698074 158.847885,212.150269 134.474152,176.586960 
	C133.567352,175.263855 132.602051,173.980850 130.728546,171.381073 
	C130.728546,174.515976 130.728546,176.239777 130.728546,177.963562 
	C130.728531,212.621429 130.648560,247.279724 130.832031,281.936615 
	C130.854385,286.157440 129.684601,287.129486 125.592896,287.097809 
	C100.601051,286.904114 75.606956,287.000977 50.126919,287.000977 
z"/>
</svg>