<svg width="34" height="34" viewBox="0 0 34 34" fill="none" xmlns="http://www.w3.org/2000/svg">
<g clip-path="url(#clip0_582_514)">
<path d="M17.1002 10.4779C16.0578 9.66828 14.7776 9.22499 13.4578 9.21664C12.138 9.20828 10.8523 9.63533 9.79975 10.4316C8.74722 11.228 7.98662 12.3491 7.63575 13.6214C7.28488 14.8938 7.36332 16.2463 7.85892 17.4696C8.35453 18.6928 9.23964 19.7185 10.3772 20.3878C11.5147 21.0571 12.8412 21.3326 14.1512 21.1718C15.4612 21.0109 16.6816 20.4226 17.6234 19.4979C18.5651 18.5733 19.1758 17.3639 19.3607 16.0571" stroke="black" stroke-width="2" stroke-linecap="round" stroke-linejoin="round"/>
<path d="M16.8955 23.5211C17.9385 24.3325 19.2202 24.7768 20.5416 24.7852C21.863 24.7935 23.1502 24.3654 24.2034 23.5673C25.2565 22.7692 26.0168 21.6457 26.3661 20.3713C26.7154 19.0969 26.6342 17.7428 26.1351 16.5192C25.636 15.2957 24.747 14.2711 23.606 13.6045C22.465 12.938 21.1359 12.6667 19.8249 12.8329C18.514 12.9991 17.2946 13.5934 16.356 14.5236C15.4174 15.4538 14.8121 16.6678 14.6342 17.9772" stroke="black" stroke-width="2" stroke-linecap="round" stroke-linejoin="round"/>
</g>
<defs>
<clipPath id="clip0_582_514">
<rect width="24" height="24" fill="white" transform="translate(11.6096 0.908325) rotate(26.48)"/>
</clipPath>
</defs>
</svg>
