<svg width="26" height="26" viewBox="0 0 26 26" fill="none" xmlns="http://www.w3.org/2000/svg">
<g clip-path="url(#clip0_48_161)">
<path d="M5.41663 14.0833C5.41663 15.0792 5.61277 16.0653 5.99387 16.9853C6.37497 17.9054 6.93356 18.7414 7.63773 19.4456C8.34191 20.1497 9.17789 20.7083 10.0979 21.0894C11.018 21.4705 12.0041 21.6667 13 21.6667C13.9958 21.6667 14.9819 21.4705 15.902 21.0894C16.822 20.7083 17.658 20.1497 18.3622 19.4456C19.0664 18.7414 19.6249 17.9054 20.006 16.9853C20.3871 16.0653 20.5833 15.0792 20.5833 14.0833C20.5833 13.0875 20.3871 12.1014 20.006 11.1813C19.6249 10.2613 19.0664 9.42528 18.3622 8.72111C17.658 8.01693 16.822 7.45834 15.902 7.07725C14.9819 6.69615 13.9958 6.5 13 6.5C12.0041 6.5 11.018 6.69615 10.0979 7.07725C9.17789 7.45834 8.34191 8.01693 7.63773 8.72111C6.93356 9.42528 6.37497 10.2613 5.99387 11.1813C5.61277 12.1014 5.41663 13.0875 5.41663 14.0833Z" stroke="black" stroke-width="2" stroke-linecap="round" stroke-linejoin="round"/>
<path d="M13 10.8333V14.0833H15.1667" stroke="black" stroke-width="2" stroke-linecap="round" stroke-linejoin="round"/>
<path d="M7.58329 4.33331L4.60413 6.49998" stroke="black" stroke-width="2" stroke-linecap="round" stroke-linejoin="round"/>
<path d="M18.4166 4.33331L21.3958 6.49998" stroke="black" stroke-width="2" stroke-linecap="round" stroke-linejoin="round"/>
</g>
<defs>
<clipPath id="clip0_48_161">
<rect width="26" height="26" fill="white"/>
</clipPath>
</defs>
</svg>
