<svg width="24" height="24" viewBox="0 0 24 24" fill="none" xmlns="http://www.w3.org/2000/svg">
<g clip-path="url(#clip0_202_155)">
<path d="M11.9983 3C14.0767 3.00002 16.0735 3.80894 17.566 5.25547C19.0584 6.702 19.9293 8.67259 19.9943 10.75L19.9983 11L19.9973 17.954L20.0073 18.057C20.0388 18.5881 19.9172 19.1171 19.657 19.5811C19.3967 20.0452 19.0088 20.4248 18.5393 20.675L18.3763 20.755C17.3233 21.23 16.0933 21.003 15.2473 20.162L15.1103 20.016C15.0495 19.9383 14.9718 19.8754 14.8831 19.8322C14.7944 19.7889 14.697 19.7664 14.5983 19.7664C14.4996 19.7664 14.4022 19.7889 14.3135 19.8322C14.2248 19.8754 14.1471 19.9383 14.0863 20.016C13.8384 20.3331 13.5216 20.5897 13.1598 20.7661C12.798 20.9425 12.4008 21.0342 11.9983 21.0342C11.5958 21.0342 11.1985 20.9425 10.8368 20.7661C10.475 20.5897 10.1581 20.3331 9.91027 20.016C9.84952 19.9382 9.77184 19.8752 9.68313 19.8319C9.59441 19.7886 9.497 19.7661 9.39827 19.766C9.19827 19.766 9.00927 19.858 8.84828 20.062C8.4653 20.4957 7.95652 20.7992 7.39289 20.93C6.82925 21.0608 6.23885 21.0125 5.70398 20.7918C5.16911 20.5711 4.71643 20.189 4.40906 19.6987C4.10169 19.2085 3.95494 18.6346 3.98927 18.057L3.99727 17.966L3.99827 11L4.00227 10.75C4.06723 8.67259 4.93812 6.702 6.43057 5.25547C7.92302 3.80894 9.91985 3.00002 11.9983 3ZM14.8183 13.429C14.6669 13.2115 14.4353 13.0631 14.1745 13.0162C13.9137 12.9693 13.6449 13.0279 13.4273 13.179C13.008 13.4711 12.5093 13.6277 11.9983 13.6277C11.4873 13.6277 10.9886 13.4711 10.5693 13.179C10.3515 13.0276 10.0825 12.9688 9.8215 13.0157C9.56045 13.0626 9.32871 13.2113 9.17727 13.429C9.02584 13.6467 8.9671 13.9157 9.01398 14.1768C9.06087 14.4378 9.20953 14.6696 9.42727 14.821C10.1818 15.3462 11.079 15.6278 11.9983 15.6278C12.9176 15.6278 13.8148 15.3462 14.5693 14.821C14.6771 14.746 14.7691 14.6505 14.84 14.54C14.9109 14.4295 14.9594 14.306 14.9826 14.1768C15.0058 14.0475 15.0033 13.915 14.9753 13.7866C14.9473 13.6583 14.8943 13.5368 14.8193 13.429H14.8183ZM10.0083 9L9.88128 9.007C9.62818 9.0371 9.39613 9.16271 9.23254 9.35817C9.06895 9.55362 8.98617 9.80416 9.0011 10.0586C9.01604 10.313 9.12757 10.5522 9.31291 10.7272C9.49824 10.9021 9.7434 10.9997 9.99827 11L10.1253 10.993C10.3784 10.9629 10.6104 10.8373 10.774 10.6418C10.9376 10.4464 11.0204 10.1958 11.0054 9.94139C10.9905 9.68695 10.879 9.44782 10.6936 9.27285C10.5083 9.09788 10.2632 9.00028 10.0083 9ZM14.0083 9L13.8813 9.007C13.6282 9.0371 13.3961 9.16271 13.2325 9.35817C13.0689 9.55362 12.9862 9.80416 13.0011 10.0586C13.016 10.313 13.1276 10.5522 13.3129 10.7272C13.4982 10.9021 13.7434 10.9997 13.9983 11L14.1253 10.993C14.3784 10.9629 14.6104 10.8373 14.774 10.6418C14.9376 10.4464 15.0204 10.1958 15.0054 9.94139C14.9905 9.68695 14.879 9.44782 14.6936 9.27285C14.5083 9.09788 14.2632 9.00028 14.0083 9Z" fill="black"/>
</g>
<defs>
<clipPath id="clip0_202_155">
<rect width="24" height="24" fill="white"/>
</clipPath>
</defs>
</svg>
