<svg width="24" height="24" viewBox="0 0 24 24" fill="none" xmlns="http://www.w3.org/2000/svg">
<g id="System/alarm-plus/White" clip-path="url(#clip0_202_156)">
<path id="Vector" d="M5 13C5 13.9193 5.18106 14.8295 5.53284 15.6788C5.88463 16.5281 6.40024 17.2997 7.05025 17.9497C7.70026 18.5998 8.47194 19.1154 9.32122 19.4672C10.1705 19.8189 11.0807 20 12 20C12.9193 20 13.8295 19.8189 14.6788 19.4672C15.5281 19.1154 16.2997 18.5998 16.9497 17.9497C17.5998 17.2997 18.1154 16.5281 18.4672 15.6788C18.8189 14.8295 19 13.9193 19 13C19 12.0807 18.8189 11.1705 18.4672 10.3212C18.1154 9.47194 17.5998 8.70026 16.9497 8.05025C16.2997 7.40024 15.5281 6.88463 14.6788 6.53284C13.8295 6.18106 12.9193 6 12 6C11.0807 6 10.1705 6.18106 9.32122 6.53284C8.47194 6.88463 7.70026 7.40024 7.05025 8.05025C6.40024 8.70026 5.88463 9.47194 5.53284 10.3212C5.18106 11.1705 5 12.0807 5 13Z" stroke="black" stroke-width="1.5" stroke-linecap="round" stroke-linejoin="round"/>
<path id="Vector_2" d="M7 4L4.25 6" stroke="black" stroke-width="1.5" stroke-linecap="round" stroke-linejoin="round"/>
<path id="Vector_3" d="M17 4L19.75 6" stroke="black" stroke-width="1.5" stroke-linecap="round" stroke-linejoin="round"/>
<path id="Vector_4" d="M10 13H14" stroke="black" stroke-width="1.5" stroke-linecap="round" stroke-linejoin="round"/>
<path id="Vector_5" d="M12 11V15" stroke="black" stroke-width="1.5" stroke-linecap="round" stroke-linejoin="round"/>
</g>
<defs>
<clipPath id="clip0_202_156">
<rect width="24" height="24" fill="white"/>
</clipPath>
</defs>
</svg>
